<?xml version="1.0" encoding="UTF-8" standalone="no"?>
<!DOCTYPE svg PUBLIC "-//W3C//DTD SVG 1.1//EN"
 "http://www.w3.org/Graphics/SVG/1.1/DTD/svg11.dtd">
<!-- Generated by graphviz version 2.38.0 (20140413.2041)
 -->
<!-- Title: G Pages: 1 -->
<svg width="126pt" height="592pt"
 viewBox="0.00 0.00 126.00 592.00" xmlns="http://www.w3.org/2000/svg" xmlns:xlink="http://www.w3.org/1999/xlink">
<g id="graph0" class="graph" transform="scale(1 1) rotate(0) translate(4 588)">
<title>G</title>
<polygon fill="white" stroke="none" points="-4,4 -4,-588 122,-588 122,4 -4,4"/>
<g id="clust1" class="cluster"><title>cluster_Global</title>
<path fill="none" stroke="gray" d="M19,-8C19,-8 99,-8 99,-8 105,-8 111,-14 111,-20 111,-20 111,-564 111,-564 111,-570 105,-576 99,-576 99,-576 19,-576 19,-576 13,-576 7,-570 7,-564 7,-564 7,-20 7,-20 7,-14 13,-8 19,-8"/>
<text text-anchor="middle" x="59" y="-563.2" font-family="Times,serif" font-size="11.00" fill="gray">Global</text>
</g>
<g id="clust2" class="cluster"><title>cluster_\Lightna</title>
<path fill="none" stroke="gray" d="M27,-16C27,-16 91,-16 91,-16 97,-16 103,-22 103,-28 103,-28 103,-536 103,-536 103,-542 97,-548 91,-548 91,-548 27,-548 27,-548 21,-548 15,-542 15,-536 15,-536 15,-28 15,-28 15,-22 21,-16 27,-16"/>
<text text-anchor="middle" x="59" y="-535.2" font-family="Times,serif" font-size="11.00" fill="gray">Lightna</text>
</g>
<g id="clust3" class="cluster"><title>cluster_\Lightna\Database</title>
<path fill="none" stroke="gray" d="M35,-340C35,-340 83,-340 83,-340 89,-340 95,-346 95,-352 95,-352 95,-508 95,-508 95,-514 89,-520 83,-520 83,-520 35,-520 35,-520 29,-520 23,-514 23,-508 23,-508 23,-352 23,-352 23,-346 29,-340 35,-340"/>
<text text-anchor="middle" x="59" y="-507.2" font-family="Times,serif" font-size="11.00" fill="gray">Database</text>
</g>
<!-- \\Lightna\\Database\\Field -->
<g id="node1" class="node"><title>\\Lightna\\Database\\Field</title>
<polygon fill="none" stroke="black" points="86,-492 32,-492 32,-456 86,-456 86,-492"/>
<text text-anchor="middle" x="59" y="-471.2" font-family="Courier,monospace" font-size="11.00">Field</text>
</g>
<!-- \\Lightna\\Database\\Model -->
<g id="node2" class="node"><title>\\Lightna\\Database\\Model</title>
<polygon fill="none" stroke="black" points="86,-438 32,-438 32,-402 86,-402 86,-438"/>
<text text-anchor="middle" x="59" y="-417.2" font-family="Courier,monospace" font-size="11.00">Model</text>
</g>
<!-- \\Lightna\\Database\\ORM -->
<g id="node3" class="node"><title>\\Lightna\\Database\\ORM</title>
<polygon fill="none" stroke="black" points="86,-384 32,-384 32,-348 86,-348 86,-384"/>
<text text-anchor="middle" x="59" y="-363.2" font-family="Courier,monospace" font-size="11.00">ORM</text>
</g>
<!-- \\Lightna\\Response -->
<g id="node4" class="node"><title>\\Lightna\\Response</title>
<polygon fill="none" stroke="black" points="91.5,-330 26.5,-330 26.5,-294 91.5,-294 91.5,-330"/>
<text text-anchor="middle" x="59" y="-309.2" font-family="Courier,monospace" font-size="11.00">Response</text>
</g>
<!-- \\Lightna\\Utility -->
<g id="node5" class="node"><title>\\Lightna\\Utility</title>
<polygon fill="none" stroke="black" points="88.5,-276 29.5,-276 29.5,-240 88.5,-240 88.5,-276"/>
<text text-anchor="middle" x="59" y="-255.2" font-family="Courier,monospace" font-size="11.00">Utility</text>
</g>
<!-- \\Lightna\\Router -->
<g id="node6" class="node"><title>\\Lightna\\Router</title>
<polygon fill="none" stroke="black" points="86,-222 32,-222 32,-186 86,-186 86,-222"/>
<text text-anchor="middle" x="59" y="-201.2" font-family="Courier,monospace" font-size="11.00">Router</text>
</g>
<!-- \\Lightna\\Request -->
<g id="node7" class="node"><title>\\Lightna\\Request</title>
<polygon fill="none" stroke="black" points="88.5,-168 29.5,-168 29.5,-132 88.5,-132 88.5,-168"/>
<text text-anchor="middle" x="59" y="-147.2" font-family="Courier,monospace" font-size="11.00">Request</text>
</g>
<!-- \\Lightna\\View -->
<g id="node8" class="node"><title>\\Lightna\\View</title>
<polygon fill="none" stroke="black" points="86,-114 32,-114 32,-78 86,-78 86,-114"/>
<text text-anchor="middle" x="59" y="-93.2" font-family="Courier,monospace" font-size="11.00">View</text>
</g>
<!-- \\Lightna\\Route -->
<g id="node9" class="node"><title>\\Lightna\\Route</title>
<polygon fill="none" stroke="black" points="86,-60 32,-60 32,-24 86,-24 86,-60"/>
<text text-anchor="middle" x="59" y="-39.2" font-family="Courier,monospace" font-size="11.00">Route</text>
</g>
</g>
</svg>
